# xmcd
#
# Track frame offsets: 
#        150
#        19192
#        34945
#        52717
#        67742
#        84242
#        102240
#        112462
#        130035
#        142240
#        167645
#        185417
#        201530
#        214325
#        232480
#        249210
#        265815
#        280165
#
# Disc length: 4050 seconds
#
# Revision: 0
# Processed by: cddbd v1.5.2PL0 Copyright (c) Steve Scherf et al.
# Submitted via: ExactAudioCopy v0.95b4
#
DISCID=0d0fd012
DTITLE=Various Artist - CBC Variety Recordings 
DYEAR=1900
DGENRE=Other
TTITLE0=No More Doggin'
TTITLE1=Faceless Wonder
TTITLE2=As Fast As My Feet
TTITLE3=My Feet Get Cold
TTITLE4=Quiero Ir A Bahia
TTITLE5=Golan Boys
TTITLE6=Autumn Of My Greeve Billy
TTITLE7=Me and My Love
TTITLE8=This Train
TTITLE9=Steaming
TTITLE10=Suil A Gra
TTITLE11=25th Hour Of The Day
TTITLE12=Susurro
TTITLE13=I Can't Tell You Why
TTITLE14=Blame It On Me
TTITLE15=Nagasaki
TTITLE16=USA Long Distance
TTITLE17=The Mary Ellen Carter
EXTD=
EXTT0=
EXTT1=
EXTT2=
EXTT3=
EXTT4=
EXTT5=
EXTT6=
EXTT7=
EXTT8=
EXTT9=
EXTT10=
EXTT11=
EXTT12=
EXTT13=
EXTT14=
EXTT15=
EXTT16=
EXTT17=
PLAYORDER=
